<?xml version="1.0" standalone="no"?>
<!DOCTYPE svg PUBLIC "-//W3C//DTD SVG 20010904//EN"
 "http://www.w3.org/TR/2001/REC-SVG-20010904/DTD/svg10.dtd">
<svg version="1.0" xmlns="http://www.w3.org/2000/svg"
 width="452.000000pt" height="452.000000pt" viewBox="0 0 452.000000 452.000000"
 preserveAspectRatio="xMidYMid meet">
<metadata>
Created by potrace 1.14, written by Peter Selinger 2001-2017
</metadata>
<g transform="translate(0.000000,452.000000) scale(0.100000,-0.100000)"
fill="#000000" stroke="none">
<path d="M213 3448 c-24 -5 -43 -13 -43 -19 0 -5 -6 -9 -13 -9 -11 0 -39 -34
-43 -52 -1 -5 -3 -9 -4 -10 -2 -2 -4 -300 -4 -663 -1 -363 -5 -666 -9 -673 -5
-6 -5 -12 0 -12 4 0 8 -110 7 -245 0 -134 3 -242 8 -239 4 3 11 -3 15 -13 9
-23 28 -43 42 -43 6 0 11 -4 11 -8 0 -4 10 -8 23 -9 33 -3 686 -2 730 0 21 1
41 -1 44 -5 2 -5 9 -6 15 -2 11 7 314 6 368 -1 19 -3 54 -7 78 -10 24 -2 48
-7 54 -11 6 -4 22 -8 37 -9 36 -4 55 -9 61 -17 3 -4 18 -8 33 -10 16 -3 32
-10 36 -17 5 -7 10 -12 12 -11 11 4 59 -13 59 -22 0 -5 5 -6 10 -3 6 3 13 -1
16 -9 3 -9 10 -13 15 -10 5 3 9 0 9 -6 0 -6 4 -9 8 -6 5 3 16 -4 25 -15 9 -10
24 -19 32 -19 9 0 13 -5 10 -10 -3 -5 0 -10 7 -10 17 0 109 -86 101 -94 -4 -3
1 -6 10 -6 9 0 17 -7 17 -15 0 -8 5 -15 10 -15 6 0 10 -7 10 -15 0 -8 4 -15 9
-15 5 0 13 -9 16 -20 3 -11 10 -20 16 -20 14 0 49 33 49 47 0 7 4 13 9 13 5 0
13 9 16 20 4 11 11 18 16 15 5 -4 9 -2 9 2 0 12 39 53 85 88 21 17 43 35 49
40 13 11 45 30 91 54 16 9 33 21 37 26 4 6 8 7 8 2 0 -4 15 0 33 10 17 9 35
18 40 19 4 1 8 2 10 4 1 1 15 4 32 6 16 3 32 9 35 12 3 4 15 7 28 6 12 -1 22
2 22 5 0 9 10 10 231 14 103 3 192 7 198 11 6 4 11 4 11 -1 0 -4 65 -8 145 -8
85 0 145 4 145 10 0 5 5 4 11 -2 6 -6 19 -8 29 -6 18 5 19 21 19 329 0 178 2
327 4 332 3 4 111 7 239 7 128 -1 238 2 244 7 9 6 12 104 13 335 1 180 4 329
7 332 2 3 109 5 237 6 128 0 237 3 243 7 8 5 11 104 10 330 l-1 323 -795 0
c-852 0 -894 -2 -1035 -45 -38 -12 -76 -22 -82 -22 -7 -1 -13 -4 -13 -8 0 -4
-6 -7 -12 -7 -17 0 -158 -70 -179 -89 -8 -8 -21 -14 -27 -14 -7 0 -12 -3 -12
-7 0 -5 -16 -19 -35 -32 -19 -13 -32 -28 -28 -34 3 -5 2 -7 -4 -4 -10 7 -78
-66 -101 -109 -7 -13 -16 -24 -21 -24 -13 0 -32 26 -24 33 3 4 -1 7 -11 7 -9
0 -15 4 -12 9 3 5 -12 25 -34 45 -22 20 -38 36 -35 36 3 0 0 6 -7 14 -7 8 -15
12 -17 10 -2 -1 -10 4 -18 12 -35 34 -225 141 -268 151 -5 1 -26 7 -45 14 -70
24 -79 27 -120 33 -14 3 -44 9 -68 14 -24 6 -54 9 -68 7 -13 -1 -27 1 -29 5
-3 4 -237 8 -522 9 -284 1 -519 3 -522 5 -3 1 -25 -1 -48 -6z"/>
</g>
</svg>
